<?xml version="1.0" encoding="utf-8"?>
<!-- Generator: Adobe Illustrator 22.1.0, SVG Export Plug-In . SVG Version: 6.00 Build 0)  -->
<svg version="1.1" id="Layer_1" xmlns="http://www.w3.org/2000/svg" xmlns:xlink="http://www.w3.org/1999/xlink" x="0px" y="0px"
	 viewBox="0 0 18 18" style="enable-background:new 0 0 18 18;" xml:space="preserve">
<style type="text/css">
	.st0{fill:#9A6A2B;}
</style>
<path id="access_time---material" class="st0" d="M9.4,4.8v4.4l3.7,2.2l-0.6,1.1L8.2,9.8v-5H9.4z M9,15.7c1.2,0,2.3-0.3,3.4-0.9
	c1-0.6,1.8-1.4,2.4-2.4c0.6-1,0.9-2.2,0.9-3.4s-0.3-2.3-0.9-3.4c-0.6-1-1.4-1.8-2.4-2.4c-1-0.6-2.2-0.9-3.4-0.9S6.7,2.6,5.6,3.2
	c-1,0.6-1.8,1.4-2.4,2.4C2.6,6.7,2.3,7.8,2.3,9s0.3,2.3,0.9,3.4c0.6,1,1.4,1.8,2.4,2.4C6.7,15.4,7.8,15.7,9,15.7z M9,0.7
	c1.5,0,2.9,0.4,4.2,1.1c1.3,0.7,2.2,1.7,3,3c0.8,1.3,1.1,2.7,1.1,4.2s-0.4,2.9-1.1,4.2c-0.7,1.3-1.7,2.2-3,3
	c-1.3,0.8-2.7,1.1-4.2,1.1s-2.9-0.4-4.2-1.1c-1.3-0.7-2.2-1.7-3-3C1.1,11.9,0.7,10.5,0.7,9s0.4-2.9,1.1-4.2c0.7-1.3,1.7-2.2,3-3
	C6.1,1.1,7.5,0.7,9,0.7z"/>
</svg>
