<?xml version="1.0" encoding="utf-8"?>
<!-- Generator: Adobe Illustrator 22.1.0, SVG Export Plug-In . SVG Version: 6.00 Build 0)  -->
<svg version="1.1" id="Layer_1" xmlns="http://www.w3.org/2000/svg" xmlns:xlink="http://www.w3.org/1999/xlink" x="0px" y="0px"
	 viewBox="0 0 6 11" style="enable-background:new 0 0 6 11;" xml:space="preserve">
<style type="text/css">
	.st0{fill:#9A6A2B;}
</style>
<path id="angle-left" class="st0" d="M0.2,5C0.2,5.1,0.1,5.1,0.1,5.2c0,0.1,0,0.2,0.1,0.2l4.7,4.7c0.1,0.1,0.1,0.1,0.2,0.1
	c0.1,0,0.2,0,0.2-0.1l0.5-0.5C5.9,9.6,6,9.5,6,9.4c0-0.1,0-0.2-0.1-0.2L1.9,5.2l3.9-3.9C5.9,1.2,6,1.1,6,1s0-0.2-0.1-0.2L5.4,0.3
	C5.3,0.2,5.2,0.2,5.1,0.2c-0.1,0-0.2,0-0.2,0.1L0.2,5z"/>
</svg>
