<?xml version="1.0" encoding="utf-8"?>
<!-- Generator: Adobe Illustrator 22.1.0, SVG Export Plug-In . SVG Version: 6.00 Build 0)  -->
<svg version="1.1" id="Layer_1" xmlns="http://www.w3.org/2000/svg" xmlns:xlink="http://www.w3.org/1999/xlink" x="0px" y="0px"
	 viewBox="0 0 6 11" style="enable-background:new 0 0 6 11;" xml:space="preserve">
<style type="text/css">
	.st0{fill-opacity:0.4;}
</style>
<path id="angle-left" class="st0" d="M1.2,0.3c0-0.1-0.1-0.1-0.2-0.1s-0.2,0-0.3,0.1L0.2,0.8C0.1,0.8,0.1,0.9,0.1,1s0.1,0.2,0.2,0.3
	l3.9,3.9l-4,4c-0.1,0-0.1,0.1-0.1,0.2s0.1,0.2,0.2,0.2l0.5,0.5c0,0.1,0.1,0.1,0.2,0.1s0.1,0,0.2-0.1l4.7-4.7C6,5.4,6,5.3,6,5.2
	S5.9,5.1,5.9,5L1.2,0.3z"/>
</svg>
