<?xml version="1.0" encoding="utf-8"?>
<!-- Generator: Adobe Illustrator 22.1.0, SVG Export Plug-In . SVG Version: 6.00 Build 0)  -->
<svg version="1.1" id="Layer_1" xmlns="http://www.w3.org/2000/svg" xmlns:xlink="http://www.w3.org/1999/xlink" x="0px" y="0px"
	 viewBox="0 0 75 55" style="enable-background:new 0 0 75 55;" xml:space="preserve">
<style type="text/css">
	.st0{fill:#D0021B;}
	.st1{fill:#FFFFFF;}
	.st2{fill:#CCCCCC;}
</style>
<path id="Path" class="st0" d="M75,27.5v10.2c0,11.7-2.4,14.9-10.6,16.7C61.4,55,46.8,55,37.5,55s-23.9,0-26.9-0.6
	C2.4,52.6,0,49.4,0,37.7V27.5V17.3C0,5.6,2.4,2.4,10.6,0.6C13.6,0,28.2,0,37.5,0s23.9,0,26.9,0.6C72.6,2.4,75,5.6,75,17.3V27.5z"/>
<polygon id="Path_1_" class="st1" points="30,17 30,38 51,27.6 "/>
<polygon id="Path_2_" class="st2" points="48.5,28.9 51,27.6 30,17 "/>
</svg>
