<?xml version="1.0" encoding="utf-8"?>
<!-- Generator: Adobe Illustrator 22.1.0, SVG Export Plug-In . SVG Version: 6.00 Build 0)  -->
<svg version="1.1" id="Layer_1" xmlns="http://www.w3.org/2000/svg" xmlns:xlink="http://www.w3.org/1999/xlink" x="0px" y="0px"
	 viewBox="0 0 18 14" style="enable-background:new 0 0 18 14;" xml:space="preserve">
<style type="text/css">
	.st0{fill:#9A6A2B;}
</style>
<path id="Check---FontAwesome" class="st0" d="M17.3,2.4c0.2,0.2,0.3,0.5,0.3,0.8c0,0.3-0.1,0.6-0.3,0.8l-9.6,9.6
	c-0.2,0.2-0.5,0.3-0.8,0.3s-0.6-0.1-0.8-0.3L0.7,8C0.5,7.8,0.4,7.5,0.4,7.2s0.1-0.6,0.3-0.8l1.5-1.5c0.2-0.2,0.5-0.3,0.8-0.3
	s0.6,0.1,0.8,0.3L7,8.2l7.3-7.3c0.2-0.2,0.5-0.3,0.8-0.3s0.6,0.1,0.8,0.3L17.3,2.4z"/>
</svg>
