<?xml version="1.0" encoding="utf-8"?>
<!-- Generator: Adobe Illustrator 22.1.0, SVG Export Plug-In . SVG Version: 6.00 Build 0)  -->
<svg version="1.1" id="Layer_1" xmlns="http://www.w3.org/2000/svg" xmlns:xlink="http://www.w3.org/1999/xlink" x="0px" y="0px"
	 viewBox="0 0 9 13" style="enable-background:new 0 0 9 13;" xml:space="preserve">
<style type="text/css">
	.st0{fill:#FFFFFF;}
</style>
<path id="chevron-right---FontAwesome" class="st0" d="M8.6,6.9l-5.8,5.8c-0.1,0.1-0.2,0.1-0.4,0.1s-0.3,0-0.4-0.1l-1.3-1.3
	c-0.1-0.1-0.1-0.2-0.1-0.4s0-0.3,0.1-0.4L5,6.5L0.9,2.4C0.8,2.3,0.7,2.1,0.7,2s0-0.3,0.1-0.4l1.3-1.3c0.1-0.1,0.2-0.1,0.4-0.1
	s0.3,0,0.4,0.1l5.8,5.8c0.1,0.1,0.1,0.2,0.1,0.4S8.7,6.8,8.6,6.9z"/>
</svg>
