<?xml version="1.0" encoding="utf-8"?>
<!-- Generator: Adobe Illustrator 22.1.0, SVG Export Plug-In . SVG Version: 6.00 Build 0)  -->
<svg version="1.1" id="Layer_1" xmlns="http://www.w3.org/2000/svg" xmlns:xlink="http://www.w3.org/1999/xlink" x="0px" y="0px"
	 viewBox="0 0 9 13" style="enable-background:new 0 0 9 13;" xml:space="preserve">
<style type="text/css">
	.st0{fill:#FFFFFF;}
</style>
<path id="chevron-right---FontAwesome" class="st0" d="M0,6.5c0-0.2,0-0.3,0.1-0.4l5.8-5.8C6,0.2,6.1,0.2,6.3,0.2
	c0.2,0,0.3,0,0.4,0.1L8,1.6C8.1,1.7,8.1,1.9,8.1,2S8,2.3,7.9,2.4L3.8,6.5l4.3,4.1c0.1,0.1,0.1,0.2,0.1,0.4s0,0.3-0.1,0.4l-1.3,1.3
	c-0.1,0.1-0.2,0.1-0.4,0.1c-0.2,0-0.3,0-0.4-0.1L0.2,6.9C0.1,6.8,0,6.7,0,6.5z"/>
</svg>
