<?xml version="1.0" encoding="utf-8"?>
<!-- Generator: Adobe Illustrator 22.1.0, SVG Export Plug-In . SVG Version: 6.00 Build 0)  -->
<svg version="1.1" id="Layer_1" xmlns="http://www.w3.org/2000/svg" xmlns:xlink="http://www.w3.org/1999/xlink" x="0px" y="0px"
	 viewBox="0 0 16 13" style="enable-background:new 0 0 16 13;" xml:space="preserve">
<style type="text/css">
	.st0{fill:#9A6A2B;}
</style>
<path id="email---material" class="st0" d="M14,3.7V2.2L8,6L2,2.2v1.5l6,3.7L14,3.7z M14,0.7c0.4,0,0.8,0.1,1,0.4
	c0.3,0.3,0.4,0.7,0.4,1.1v9c0,0.4-0.1,0.8-0.4,1.1c-0.3,0.3-0.6,0.4-1,0.4H2c-0.4,0-0.8-0.1-1-0.4s-0.4-0.7-0.4-1.1v-9
	c0-0.4,0.1-0.8,0.4-1.1s0.6-0.4,1-0.4H14z"/>
</svg>
