<?xml version="1.0" encoding="utf-8"?>
<!-- Generator: Adobe Illustrator 22.1.0, SVG Export Plug-In . SVG Version: 6.00 Build 0)  -->
<svg version="1.1" id="Layer_1" xmlns="http://www.w3.org/2000/svg" xmlns:xlink="http://www.w3.org/1999/xlink" x="0px" y="0px"
	 viewBox="0 0 20 17" style="enable-background:new 0 0 20 17;" xml:space="preserve">
<style type="text/css">
	.st0{fill:#9A6A2B;}
</style>
<path id="Envelope-Outlined---FontAwesome" class="st0" d="M18.6,14.6V6.1c-0.2,0.3-0.5,0.5-0.8,0.7c-2,1.5-3.6,2.8-4.8,3.8
	c-0.4,0.3-0.7,0.6-0.9,0.7s-0.6,0.4-1,0.5c-0.4,0.2-0.8,0.3-1.1,0.3h0c-0.4,0-0.7-0.1-1.1-0.3c-0.4-0.2-0.7-0.4-1-0.5
	S7.3,10.9,7,10.6c-1.2-1-2.8-2.2-4.8-3.8C1.9,6.6,1.7,6.3,1.4,6.1v8.6c0,0.1,0,0.2,0.1,0.3C1.6,15,1.7,15,1.8,15h16.4
	c0.1,0,0.2,0,0.3-0.1C18.5,14.8,18.6,14.7,18.6,14.6z M18.6,2.9V2.6c0,0,0-0.1,0-0.1c0-0.1,0-0.1,0-0.1c0,0,0-0.1-0.1-0.1
	c0,0-0.1-0.1-0.1-0.1c0,0-0.1,0-0.2,0H1.8c-0.1,0-0.2,0-0.3,0.1S1.4,2.4,1.4,2.5c0,1.3,0.5,2.3,1.6,3.2C4.5,6.8,6,8,7.5,9.2
	c0,0,0.2,0.1,0.4,0.3C8.2,9.7,8.3,9.9,8.4,10c0.1,0.1,0.3,0.2,0.5,0.4s0.4,0.2,0.6,0.3c0.2,0.1,0.3,0.1,0.5,0.1h0
	c0.1,0,0.3,0,0.5-0.1c0.2-0.1,0.4-0.2,0.6-0.3s0.4-0.3,0.5-0.4c0.1-0.1,0.3-0.2,0.5-0.4c0.2-0.2,0.3-0.3,0.4-0.3
	c1.5-1.2,3-2.4,4.5-3.5c0.4-0.3,0.8-0.7,1.1-1.3C18.4,3.8,18.6,3.4,18.6,2.9z M20,2.5v12.1c0,0.5-0.2,0.9-0.5,1.3
	c-0.3,0.3-0.8,0.5-1.3,0.5H1.8c-0.5,0-0.9-0.2-1.3-0.5C0.2,15.6,0,15.1,0,14.6V2.5C0,2,0.2,1.6,0.5,1.2c0.3-0.3,0.8-0.5,1.3-0.5
	h16.4c0.5,0,0.9,0.2,1.3,0.5C19.8,1.6,20,2,20,2.5z"/>
</svg>
