<?xml version="1.0" encoding="utf-8"?>
<!-- Generator: Adobe Illustrator 22.1.0, SVG Export Plug-In . SVG Version: 6.00 Build 0)  -->
<svg version="1.1" id="Layer_1" xmlns="http://www.w3.org/2000/svg" xmlns:xlink="http://www.w3.org/1999/xlink" x="0px" y="0px"
	 viewBox="0 0 19 15" style="enable-background:new 0 0 19 15;" xml:space="preserve">
<style type="text/css">
	.st0{fill:#9A6A2B;}
</style>
<path id="home---FontAwesome" class="st0" d="M15.9,8.9v5.4c0,0.2-0.1,0.4-0.2,0.5c-0.1,0.1-0.3,0.2-0.5,0.2h-4.3v-4.3H8.1V15H3.8
	c-0.2,0-0.4-0.1-0.5-0.2c-0.1-0.1-0.2-0.3-0.2-0.5V8.9c0,0,0,0,0,0s0,0,0,0l6.4-5.3L15.9,8.9C15.9,8.9,15.9,8.9,15.9,8.9z M18.4,8.2
	L17.7,9c-0.1,0.1-0.1,0.1-0.2,0.1h0c-0.1,0-0.2,0-0.2-0.1L9.5,2.6L1.8,9C1.7,9.1,1.6,9.1,1.5,9.1C1.4,9.1,1.3,9.1,1.3,9L0.6,8.2
	C0.5,8.1,0.5,8,0.5,7.9c0-0.1,0-0.2,0.1-0.2l8-6.7c0.2-0.2,0.5-0.3,0.8-0.3s0.6,0.1,0.8,0.3l2.7,2.3V1.1c0-0.1,0-0.2,0.1-0.3
	s0.2-0.1,0.3-0.1h2.1c0.1,0,0.2,0,0.3,0.1s0.1,0.2,0.1,0.3v4.6l2.4,2c0.1,0.1,0.1,0.1,0.1,0.2C18.5,8,18.5,8.1,18.4,8.2z"/>
</svg>
