<?xml version="1.0" encoding="utf-8"?>
<!-- Generator: Adobe Illustrator 22.1.0, SVG Export Plug-In . SVG Version: 6.00 Build 0)  -->
<svg version="1.1" id="Layer_1" xmlns="http://www.w3.org/2000/svg" xmlns:xlink="http://www.w3.org/1999/xlink" x="0px" y="0px"
	 viewBox="0 0 81 151" style="enable-background:new 0 0 81 151;" xml:space="preserve">
<style type="text/css">
	.st0{fill:#9A6A2B;}
</style>
<path id="Shape" class="st0" d="M7.3,137v2.3H6.5c-0.1-0.2-0.2-0.5-0.2-0.6c-0.1-0.2-0.2-0.3-0.2-0.5C6,138,5.9,138,5.8,137.9
	c-0.1-0.1-0.2-0.2-0.4-0.2s-0.3-0.1-0.5-0.1H2.3v4.1H4c0.2,0,0.4,0,0.5-0.1c0.2-0.1,0.2-0.2,0.3-0.3c0.1-0.2,0.2-0.5,0.2-0.8h0.7v3
	H5.2C5.1,143.3,5,143,5,142.8c-0.1-0.2-0.2-0.2-0.3-0.3s-0.4-0.1-0.5-0.1H2.3v4.5h2.4c0.2,0,0.4,0,0.6-0.1s0.3-0.2,0.4-0.2
	c0.2-0.2,0.2-0.2,0.3-0.4c0.1-0.2,0.2-0.3,0.2-0.5c0.1-0.2,0.2-0.5,0.2-0.8h0.8L7,147.6H0v-0.4c0.2-0.1,0.5-0.2,0.6-0.3
	s0.2-0.2,0.2-0.5c0.1-0.3,0.1-0.5,0.1-0.9v-6.7c0-0.2,0-0.5,0-0.8c0-0.2-0.1-0.2-0.2-0.4c-0.1-0.1-0.2-0.2-0.2-0.2
	c-0.2,0-0.4,0-0.5-0.1V137H7.3z M14.2,147.6v-0.4l-0.9-2c-0.1-0.4-0.3-0.7-0.6-0.9c-0.2-0.2-0.5-0.2-0.9-0.2h-0.5v1.6
	c-0.1,0.4,0,0.9,0.2,1.2c0.2,0.2,0.4,0.3,0.7,0.4v0.4h-3v-0.4c0.2,0,0.5-0.2,0.6-0.4c0.2-0.4,0.2-0.8,0.2-1.2v-3.8
	c0-0.3,0-0.6-0.2-0.9c-0.2-0.2-0.4-0.3-0.7-0.4v-0.4h3.1v0.5c-0.2,0-0.5,0.2-0.6,0.4c-0.2,0.3-0.2,0.6-0.2,0.9v1.6H12
	c0.3,0,0.5-0.1,0.8-0.3c0.3-0.4,0.5-0.9,0.7-1.3c0.2-0.5,0.5-1,0.9-1.4s0.9-0.5,1.5-0.5c0.2,0,0.5,0.1,0.8,0.1v1.6H16
	c-0.1-0.3-0.2-0.5-0.5-0.5c-0.2,0-0.4,0.1-0.5,0.2c-0.2,0.2-0.4,0.5-0.5,0.9c-0.2,0.6-0.6,1.2-1.1,1.5c0.7,0.2,1.3,0.6,1.6,1.3
	l0.6,1.2c0.2,0.3,0.3,0.5,0.5,0.8c0.2,0.2,0.5,0.3,0.7,0.3v0.2h-2.6V147.6z M22.1,146.5H22c-0.4,0.4-0.8,0.7-1.3,1
	c-0.4,0.2-0.9,0.3-1.3,0.3s-0.7-0.1-1-0.2s-0.5-0.4-0.7-0.6c-0.2-0.3-0.2-0.6-0.2-0.9c0-0.8,0.5-1.4,1.1-1.7
	c1.1-0.5,2.2-0.7,3.4-0.7V143c0-0.5-0.1-0.9-0.2-1.3c-0.1-0.3-0.2-0.5-0.5-0.7c-0.2-0.2-0.5-0.2-0.9-0.2s-0.7,0.1-1,0.3
	c-0.2,0.2-0.5,0.6-0.5,0.9h-1v-1c0.4-0.2,0.8-0.4,1.3-0.5c0.3-0.2,0.6-0.2,1-0.3c0.3-0.1,0.7-0.1,1-0.1c0.4,0,0.9,0.1,1.3,0.2
	c0.3,0.2,0.5,0.5,0.7,0.8c0.2,0.5,0.2,1,0.2,1.6v2.7c0,0.4,0,0.6,0,0.8s0,0.3,0,0.5c0,0.1,0.1,0.2,0.2,0.3s0.2,0.2,0.2,0.2
	c0.2,0.1,0.3,0.2,0.5,0.2v0.4h-2.1v-1.3H22.1z M22,144.1c-0.8,0-1.6,0.1-2.3,0.4c-0.5,0.2-0.8,0.7-0.8,1.3c0,0.2,0.1,0.5,0.2,0.7
	s0.2,0.3,0.5,0.3c0.2,0.1,0.4,0.1,0.6,0.1c0.3,0,0.7-0.1,0.9-0.2c0.3-0.2,0.5-0.4,0.7-0.6c0.2-0.2,0.2-0.5,0.2-0.8
	C22,145.3,22,144.1,22,144.1z M31.6,142.4c-0.1-0.4-0.3-0.8-0.5-1.2c-0.2-0.2-0.5-0.4-0.9-0.4h-0.8v4.8c-0.1,0.4,0,0.8,0.2,1.2
	c0.2,0.2,0.5,0.3,0.8,0.4v0.4h-3.3v-0.4c0.3,0,0.6-0.2,0.8-0.4c0.2-0.4,0.2-0.8,0.2-1.2v-4.8h-0.8c-0.4,0-0.7,0.2-0.9,0.4
	c-0.2,0.3-0.4,0.7-0.5,1.1H25v-2.2h7.3v2.2L31.6,142.4L31.6,142.4z M39.8,146.3c-0.3,0.3-0.6,0.5-0.9,0.8c-0.3,0.2-0.6,0.4-0.9,0.5
	c-0.4,0.1-0.7,0.2-1.1,0.2c-0.9,0.1-1.8-0.2-2.4-0.9c-0.5-0.9-0.9-1.8-0.8-2.8c0-0.7,0.2-1.4,0.4-2c0.2-0.5,0.6-1,1.2-1.4
	c0.5-0.3,1.2-0.5,1.8-0.5c0.5,0,0.9,0.1,1.3,0.2c0.3,0.2,0.6,0.4,0.9,0.7c0.2,0.3,0.4,0.7,0.5,1.1c0.2,0.5,0.2,1.2,0.2,1.7h-5v0.2
	c0,0.5,0.1,1.1,0.2,1.6c0.2,0.4,0.4,0.7,0.7,0.9c0.4,0.2,0.8,0.4,1.3,0.4c0.4,0,0.8-0.1,1.1-0.2c0.4-0.2,0.7-0.5,1-0.8L39.8,146.3z
	 M38.6,143.2c0-0.5-0.1-0.9-0.2-1.4c-0.1-0.3-0.2-0.6-0.5-0.8c-0.2-0.2-0.5-0.3-0.9-0.3c-0.5,0-1,0.2-1.3,0.6
	c-0.4,0.5-0.5,1.2-0.5,1.9H38.6z M43.5,147.4v1.6c0,0.2,0,0.5,0,0.8c0,0.2,0.1,0.2,0.2,0.4c0.1,0.1,0.2,0.2,0.2,0.2
	c0.2,0.1,0.3,0.2,0.5,0.2v0.4h-3.1v-0.4c0.2,0,0.3-0.1,0.5-0.2c0.1-0.1,0.2-0.2,0.3-0.2c0.1-0.2,0.1-0.3,0.2-0.4c0-0.2,0-0.4,0-0.7
	v-6.7c0-0.4,0-0.6,0-0.8s0-0.2-0.1-0.4c0-0.1-0.1-0.2-0.2-0.2c-0.1-0.1-0.2-0.2-0.2-0.2c-0.2-0.1-0.3-0.1-0.5-0.2v-0.4l1.8-0.1h0.5
	l-0.1,1.3h0.2c0.2-0.2,0.5-0.5,0.8-0.7c0.2-0.2,0.4-0.2,0.5-0.4c0.2-0.1,0.4-0.2,0.5-0.2c0.2-0.1,0.4-0.1,0.6-0.1
	c0.8-0.1,1.6,0.3,2,0.9c0.5,0.9,0.8,1.8,0.7,2.8c0,0.8-0.1,1.6-0.4,2.3c-0.2,0.5-0.6,1-1.2,1.3s-1.2,0.5-1.8,0.5c-0.3,0-0.7,0-1-0.1
	C44.1,147.6,43.8,147.6,43.5,147.4z M43.5,144.9c0,0.4,0,0.8,0.1,1.2c0.1,0.2,0.2,0.5,0.3,0.6c0.2,0.2,0.3,0.3,0.5,0.4
	c0.3,0.1,0.5,0.2,0.9,0.2c0.5,0,1.1-0.3,1.4-0.8c0.4-0.7,0.5-1.6,0.5-2.3c0-2-0.6-3.1-1.8-3.1c-0.2,0-0.5,0-0.8,0.2
	c-0.2,0.1-0.5,0.2-0.6,0.5c-0.2,0.2-0.3,0.4-0.5,0.6c-0.1,0.2-0.2,0.4-0.2,0.6L43.5,144.9z M55.1,147.6v-0.4
	c0.2-0.1,0.5-0.2,0.6-0.4c0.2-0.3,0.2-0.6,0.2-1v-3.3l-3.4,3.5c0,0.2,0,0.5,0.2,0.8c0.2,0.2,0.4,0.3,0.6,0.3v0.5h-3v-0.4
	c0.2-0.1,0.5-0.2,0.7-0.4c0.2-0.3,0.2-0.6,0.2-0.9v-4c0-0.3,0-0.7-0.2-0.9s-0.4-0.3-0.7-0.4v-0.4h3v0.4c-0.2,0-0.5,0.2-0.6,0.4
	c-0.2,0.3-0.2,0.6-0.2,0.9v3.2l3.4-3.5c0.1-0.5-0.3-0.9-0.8-1v-0.4h3v0.4c-0.2,0-0.5,0.2-0.6,0.4c-0.2,0.3-0.2,0.6-0.2,1v4
	c0,0.3,0,0.6,0.2,0.9c0.2,0.2,0.4,0.3,0.7,0.4v0.3L55.1,147.6L55.1,147.6z M64.5,147.6v-0.4c0.2-0.1,0.5-0.2,0.6-0.4
	c0.2-0.3,0.2-0.6,0.2-1V144h-3.4v1.8c0,0.3,0,0.6,0.2,0.9c0.2,0.2,0.4,0.3,0.7,0.4v0.5h-3.1v-0.4c0.2-0.1,0.5-0.2,0.7-0.4
	c0.2-0.3,0.2-0.6,0.2-0.9v-4c0-0.3,0-0.7-0.2-0.9s-0.4-0.3-0.7-0.4v-0.4h3.1v0.4c-0.2,0-0.5,0.2-0.6,0.4c-0.2,0.3-0.2,0.6-0.2,1v1.5
	h3.4V142c0-0.3,0-0.7-0.2-1c-0.2-0.2-0.4-0.3-0.6-0.3v-0.4h3.1v0.3c-0.2,0-0.5,0.2-0.7,0.4c-0.2,0.3-0.2,0.6-0.2,0.9v4
	c0,0.3,0,0.6,0.2,0.9c0.2,0.2,0.4,0.3,0.7,0.4v0.4L64.5,147.6L64.5,147.6z M69.1,147.6v-0.4c0.2-0.1,0.5-0.2,0.7-0.4
	c0.2-0.3,0.2-0.6,0.2-0.9v-4c0-0.3,0-0.7-0.2-0.9s-0.4-0.3-0.7-0.4v-0.4h3.1v0.4c-0.3,0-0.5,0.2-0.7,0.4c-0.2,0.3-0.2,0.6-0.2,0.9
	v1.5c0.5-0.1,1.1-0.1,1.6-0.1c1.9,0,2.8,0.7,2.8,2.2c0.1,0.6-0.2,1.3-0.7,1.6c-0.8,0.5-1.6,0.6-2.5,0.5L69.1,147.6z M71.3,144v3.1
	c0.3,0,0.6,0,1,0c0.5,0.1,1.2-0.1,1.6-0.4c0.3-0.3,0.5-0.8,0.4-1.3c0-1-0.6-1.6-1.8-1.6C72.2,143.9,71.8,143.9,71.3,144z
	 M76.4,147.6v-0.4c0.2-0.1,0.5-0.2,0.7-0.4c0.2-0.3,0.2-0.6,0.2-1v-4c0-0.3,0-0.7-0.2-1c-0.2-0.2-0.4-0.3-0.7-0.3v-0.4h3.1v0.5
	c-0.2,0-0.5,0.2-0.6,0.4c-0.2,0.3-0.2,0.6-0.2,0.9v4c0,0.3,0,0.6,0.2,0.9c0.2,0.2,0.4,0.4,0.7,0.4v0.4L76.4,147.6L76.4,147.6z"/>
<path id="Shape_1_" class="st0" d="M24.1,115.4c0,0.3,0,0.6,0.2,0.9c0.2,0.2,0.5,0.3,0.8,0.4v0.4h-3.2v-0.4c0.2,0,0.6-0.2,0.7-0.3
	c0.2-0.3,0.2-0.6,0.2-0.9c-1.3,0.1-2.5-0.3-3.5-1c-0.8-0.7-1.3-1.7-1.2-2.8c-0.1-1.1,0.4-2.1,1.2-2.8c1-0.8,2.3-1.2,3.5-1.1
	c0.1-0.3,0-0.6-0.2-0.9c-0.2-0.2-0.5-0.3-0.7-0.3V106h3.2v0.4c-0.2,0-0.6,0.2-0.7,0.3c-0.2,0.2-0.2,0.6-0.2,0.9
	c3.1,0.1,4.7,1.3,4.7,3.7c0.1,1.1-0.4,2.2-1.2,2.9C26.7,115,25.4,115.4,24.1,115.4z M22.7,108.3c-2.1,0.1-3.1,1.2-3.1,3.2
	c-0.1,0.9,0.2,1.7,0.8,2.4c0.7,0.6,1.6,0.9,2.4,0.8L22.7,108.3z M24.1,108.3v6.4c2.1-0.1,3.2-1.2,3.2-3.2c0.1-0.9-0.2-1.7-0.8-2.4
	C26,108.5,25.1,108.3,24.1,108.3z M34.8,117.2c-0.6,0-1.2-0.1-1.7-0.3c-0.6-0.2-0.9-0.6-1.3-0.9c-0.4-0.5-0.7-1.1-0.9-1.7
	c-0.2-0.8-0.3-1.7-0.3-2.4c0-1,0.2-2,0.6-3c0.3-0.8,0.9-1.4,1.5-1.9c0.7-0.5,1.5-0.6,2.3-0.6c0.9,0,1.7,0.2,2.4,0.6
	c0.6,0.5,1.2,1.1,1.4,1.8c0.3,0.9,0.6,1.9,0.5,2.9c0,1-0.2,2.1-0.6,3.1c-0.3,0.8-0.9,1.4-1.6,1.9C36.5,117.1,35.6,117.2,34.8,117.2z
	 M32.2,111.7c-0.1,1.3,0.2,2.5,0.7,3.7c0.4,0.8,1.2,1.3,2,1.3c0.6,0,1-0.2,1.5-0.6c0.5-0.5,0.7-0.9,0.9-1.6c0.2-0.8,0.3-1.7,0.3-2.4
	c0-0.9-0.1-2-0.3-2.8c-0.2-0.6-0.5-1.2-0.9-1.7c-0.4-0.3-0.9-0.6-1.4-0.5c-0.4,0-0.9,0.1-1.2,0.3c-0.4,0.2-0.6,0.6-0.9,0.9
	c-0.2,0.5-0.4,0.9-0.5,1.5S32.2,111,32.2,111.7z M49.4,115.2c0,0.3,0,0.6,0,0.7s0,0.2,0.1,0.4c0,0.1,0.1,0.2,0.2,0.2
	c0.1,0.1,0.2,0.2,0.2,0.2c0.2,0.1,0.3,0.1,0.5,0.2v0.4H47v-0.4c0.2-0.1,0.4-0.2,0.6-0.2c0.2-0.1,0.2-0.2,0.2-0.4
	c0.1-0.3,0.1-0.6,0.1-0.9V112h-4.4v3.3c0,0.2,0,0.6,0,0.8c0,0.2,0.1,0.2,0.2,0.4c0.1,0.1,0.2,0.2,0.2,0.2c0.2,0.1,0.3,0.2,0.6,0.2
	v0.4h-3.3v-0.4c0.2-0.1,0.5-0.2,0.6-0.3c0.1-0.2,0.2-0.2,0.2-0.5c0.1-0.3,0.1-0.6,0.1-0.9v-6.8c0-0.2,0-0.6-0.1-0.8
	c0-0.2-0.1-0.2-0.2-0.4c-0.1-0.1-0.2-0.2-0.2-0.2c-0.2-0.1-0.3-0.2-0.5-0.2v-0.3h3.3v0.3c-0.2,0-0.3,0.1-0.5,0.2
	c-0.1,0.1-0.2,0.2-0.2,0.2c-0.1,0.1-0.2,0.2-0.2,0.4c0,0.2-0.1,0.6-0.1,0.8v2.8h4.3v-2.8c0-0.3,0-0.6-0.1-0.9c0-0.2-0.1-0.2-0.2-0.4
	c-0.2-0.2-0.4-0.2-0.6-0.2v-0.3h3.3v0.3c-0.2,0.1-0.4,0.2-0.6,0.2c-0.2,0.1-0.2,0.2-0.2,0.4c-0.1,0.4-0.1,0.7-0.1,0.9v6.8H49.4z
	 M60.3,120c0-0.6-0.2-1.1-0.3-1.6c-0.1-0.4-0.3-0.7-0.6-1c-0.2-0.2-0.5-0.2-0.8-0.2H54c-0.5,0-0.9,0.2-1.2,0.7
	c-0.3,0.6-0.5,1.4-0.5,2.1h-0.8v-3.5h0.8c0.9-1.2,1.7-2.6,2-4.1c0.5-1.4,0.8-3,0.8-4.5c0-0.2,0-0.6-0.2-0.8
	c-0.1-0.2-0.3-0.3-0.6-0.3v-0.3h6.4v0.3c-0.2,0.1-0.6,0.2-0.7,0.3c-0.2,0.4-0.2,0.8-0.2,1.3v8h1.3v3.5L60.3,120L60.3,120z
	 M58.4,107.1h-2.2c-0.3,4-1.3,7.1-2.8,9.3h5V107.1z"/>
<path id="Shape_2_" class="st0" d="M18,124h43.5v0.8H18V124z M18,133.2h43.5v0.8H18V133.2z M24.7,127.5v0.9h-0.5
	c0-0.2-0.1-0.3-0.2-0.4s-0.2-0.2-0.2-0.2c-0.1-0.1-0.2-0.1-0.3-0.1c-0.2,0-0.4,0.1-0.6,0.2c-0.2,0.2-0.3,0.3-0.3,0.6
	c-0.1,0.3-0.2,0.6-0.2,1c0,0.2,0,0.4,0.1,0.6c0,0.2,0.1,0.3,0.2,0.5s0.2,0.2,0.3,0.3s0.3,0.2,0.5,0.1c0.2,0,0.4,0,0.6-0.1
	s0.4-0.2,0.5-0.4l0.2,0.2c-0.1,0.2-0.2,0.2-0.4,0.3c-0.1,0.1-0.2,0.2-0.3,0.2c-0.1,0.1-0.2,0.1-0.4,0.2c-0.2,0-0.2,0-0.4,0
	c-0.5,0-0.9-0.2-1.2-0.5c-0.3-0.5-0.5-1-0.4-1.5c0-0.4,0.1-0.7,0.2-1c0.2-0.3,0.4-0.6,0.6-0.7c0.3-0.2,0.6-0.2,1-0.2
	c0.2,0,0.4,0,0.6,0.1C24.3,127.4,24.4,127.4,24.7,127.5z M27.3,131.3v-0.2c0.2,0,0.2-0.1,0.3-0.2c0.1-0.2,0.1-0.3,0.1-0.5v-2.1
	c0-0.2,0-0.4-0.1-0.6c-0.1-0.1-0.2-0.2-0.3-0.2v-0.2h1.8c0.4,0,0.8,0.1,1.2,0.2c0.2,0.2,0.4,0.4,0.4,0.7c0,0.4-0.2,0.7-0.7,0.9v0.1
	c0.6,0.2,0.9,0.5,0.9,1c0,0.3-0.2,0.6-0.4,0.8c-0.4,0.2-0.9,0.3-1.3,0.3L27.3,131.3L27.3,131.3z M28.5,127.7v1.4H29
	c0.3,0,0.6,0,0.8-0.2c0.2-0.2,0.2-0.3,0.2-0.6s-0.1-0.4-0.2-0.6c-0.2-0.2-0.6-0.2-0.8-0.2h-0.5V127.7z M28.5,129.4v1.6H29
	c0.3,0,0.6-0.1,0.8-0.2c0.2-0.2,0.2-0.4,0.2-0.6s-0.1-0.4-0.2-0.6c-0.2-0.2-0.5-0.2-0.8-0.2H28.5z M35.7,131.3v-0.2
	c0.2,0,0.2-0.1,0.3-0.2c0.1-0.2,0.1-0.4,0.1-0.6v-0.7h-0.3c-0.2,0-0.4,0-0.6,0.2c-0.2,0.1-0.2,0.2-0.3,0.4l-0.4,1v0.2h-1.2v-0.2
	c0.2,0,0.3-0.1,0.4-0.2c0.1-0.1,0.2-0.2,0.2-0.4l0.2-0.3c0.2-0.3,0.4-0.6,0.6-0.6c-0.7-0.2-1-0.5-1-1.1c0-0.3,0.2-0.6,0.4-0.8
	c0.5-0.2,1-0.3,1.4-0.2H37v0.2c-0.2,0-0.2,0.1-0.3,0.2c-0.1,0.2-0.1,0.3-0.1,0.5v2c0,0.2,0,0.4,0.1,0.6c0.1,0.1,0.2,0.2,0.4,0.2v0.2
	L35.7,131.3z M36.1,127.7h-0.6c-0.7,0-1,0.2-1,0.8c0,0.2,0.1,0.4,0.2,0.6c0.2,0.2,0.4,0.2,1,0.2h0.5v-1.6H36.1z M43.3,128.5
	c-0.1-0.2-0.2-0.4-0.2-0.6c-0.2-0.2-0.3-0.2-0.5-0.2h-0.4v2.5c0,0.2,0,0.4,0.1,0.6c0.1,0.1,0.2,0.2,0.4,0.2v0.2H41V131
	c0.2,0,0.3-0.1,0.5-0.2c0.1-0.2,0.1-0.4,0.1-0.6v-2.5h-0.4c-0.2,0-0.4,0.1-0.5,0.2c-0.2,0.2-0.2,0.4-0.2,0.6H40v-1.1h3.8v1.1
	L43.3,128.5L43.3,128.5z M48.2,131.4c-0.5,0-1-0.2-1.3-0.5c-0.3-0.4-0.5-1-0.5-1.5c0-0.4,0.1-0.8,0.2-1.1c0.2-0.3,0.4-0.6,0.6-0.7
	c0.3-0.2,0.6-0.2,1-0.2c0.5,0,1,0.2,1.3,0.5c0.3,0.4,0.5,1,0.5,1.4s-0.1,0.8-0.2,1.1s-0.4,0.6-0.6,0.7
	C48.8,131.3,48.5,131.4,48.2,131.4z M47.1,129.3c0,0.5,0.1,0.9,0.2,1.3c0.2,0.3,0.5,0.5,0.8,0.5c0.2,0,0.3-0.1,0.5-0.2
	c0.2-0.1,0.2-0.2,0.3-0.4s0.2-0.3,0.2-0.6s0.1-0.4,0.1-0.6c0-0.3,0-0.7-0.2-1c-0.1-0.2-0.2-0.4-0.4-0.6s-0.3-0.2-0.6-0.2
	s-0.6,0.2-0.8,0.5C47.2,128.4,47.1,128.8,47.1,129.3z M55.3,131.3v-0.2c0.2,0,0.2-0.1,0.3-0.2c0.1-0.2,0.1-0.3,0.1-0.6v-1.7
	l-1.8,1.9c0,0.2,0,0.3,0.1,0.4c0.1,0.1,0.2,0.2,0.3,0.2v0.2h-1.4v-0.2c0.2,0,0.2-0.1,0.3-0.2c0.1-0.2,0.1-0.3,0.1-0.5v-2.1
	c0-0.2,0-0.3-0.1-0.5c-0.1-0.1-0.2-0.2-0.3-0.2v-0.2h1.6v0.2c-0.2,0-0.2,0.1-0.3,0.2c-0.1,0.2-0.1,0.3-0.1,0.5v1.7l1.8-1.9
	c0-0.2,0-0.2-0.1-0.4c-0.1-0.1-0.2-0.2-0.3-0.2v-0.2H57v0.2c-0.2,0-0.2,0.1-0.3,0.2c-0.1,0.2-0.1,0.3-0.1,0.5v2.3
	c0,0.2,0,0.3,0.1,0.5c0.1,0.1,0.2,0.2,0.3,0.2v0.2L55.3,131.3z M56.2,125.7c0,0.3-0.2,0.6-0.4,0.7c-0.3,0.2-0.6,0.2-1,0.2
	s-0.7-0.1-1-0.2s-0.4-0.4-0.3-0.7v-0.2h0.6v0.2c0,0.2,0,0.4,0.2,0.5c0.2,0.2,0.3,0.2,0.5,0.2c0.2,0.1,0.4,0,0.6-0.2
	c0.2-0.2,0.2-0.3,0.2-0.5v-0.2h0.6C56.2,125.5,56.2,125.7,56.2,125.7z"/>
<path id="Combined-Shape" class="st0" d="M44.1,46.2c5.9-0.2,6.6-3.4,7.2-7.3c0.2,4.7,2.9,8.2,7.9,8.8c-5,0.5-7.5,4.1-7.9,8.8
	C50.7,52.4,50,49,43.7,49H29.4v29.4c0,4.1,1.1,8.6,3.8,11.6c0.4,0.4,0.5,0.5,0.9,0.9c2.1-3,3.2-6.8,3.2-10.6
	c-0.9,3.4-2.3,6.6-4.3,9.3c-0.4-0.5-0.7-1.3-0.9-2c3.6-5.7,4.1-14,4.1-20.6V52h7.9v15c0,6.6,0.5,15,4.1,20.8
	c-0.2,0.7-0.5,1.3-1.1,1.8v-0.2c-2-2.9-3.4-5.9-4.3-9.3c0,3.8,1.1,7.5,3.2,10.6c0.2-0.2,0.4-0.4,0.5-0.5c3.4-3.2,4.3-6.4,4.3-12
	V64.6c0-2.9,0.4-6.1,3-7.7c0.7-0.5,1.6-0.7,2.5-0.7c0.7,0,1.4,0.2,1.8,0.7c0.5,0.5,0.7,1.1,0.9,1.8c0,1.1-1.1,2-2.1,2
	c-0.5,0-1.1-0.2-1.4-0.5c-0.4-0.4-0.5-0.9-0.5-1.4c-0.9,0.5-1.6,1.4-1.8,2.5c-1.6,7,4.1,21.7,9.5,24.3c-7.2-0.2-10,4.3-14.9,7.2
	c0,0-0.7,0.9-4.7,2c-3.9,1.1-8.1-0.5-11.6-2.9c-3.9-2.7-7-6.4-13.4-6.3c2.7-2,4.3-5.2,4.3-8.6V18.1c0-3.4-1.6-6.6-4.3-8.6
	c6.4,0.2,9.5-3.6,13.4-6.3c3.6-2.3,7.7-3.9,11.6-2.9s4.7,2,4.7,2c4.8,2.9,7.9,7.3,14.9,7.2c-5.4,2.7-11.1,17.5-9.1,24.3
	c0.2,1.1,0.9,2,1.8,2.5c0-0.5,0.2-1.1,0.5-1.4c0.4-0.4,0.9-0.5,1.4-0.5c1.1,0,2.1,0.9,2.1,2c0,0.7-0.4,1.3-0.7,1.8
	c-0.5,0.5-1.3,0.7-1.8,0.7c-0.9,0-1.8-0.2-2.5-0.7c-2.5-1.6-3-4.8-3-7.7V16.8c0-5.5-0.7-8.8-4.3-12c-1.1-1.1-2.5-2-4.1-2.3
	c-2.9-1.1-7.2,0.2-9.5,2.9c-2.7,3-3.9,7.5-3.9,11.6v29.4h6.8V31.8c0-6.6-0.5-15-4.1-20.8c0.2-0.7,0.5-1.3,0.9-2
	c2,2.9,3.4,5.9,4.3,9.3c0-3.8-1.3-7.5-3.2-10.7c2.5,0.9,4.5,3,4.8,5.7c0-2.7-0.2-5.2-0.7-7.9c1.3-0.4,2.7-0.4,3.9,0
	c-0.5,2.5-0.9,5.2-0.7,7.9c0.5-2.7,2.3-4.8,4.8-5.7c-2.1,3-3.2,6.8-3.2,10.7c0.9-3.4,2.3-6.6,4.3-9.3c0,0,0-0.2,0.2-0.2
	c0.2,0.4,0.4,0.5,0.5,0.9c0,0.5,0,0.7,0.2,1.1c-3.8,5.7-4.3,14.1-4.3,20.8L44.1,46.2L44.1,46.2z M34.4,90.9c1.1,0.9,2.5,1.6,3.9,2
	c0.5-2.5,0.7-5,0.7-7.5C38.5,87.9,36.7,90,34.4,90.9z M42.3,92.9c0.2,0,0.4-0.2,0.5-0.2c1.3-0.4,2.5-1.1,3.6-1.8
	c-2.5-0.9-4.3-3-4.8-5.7C41.4,87.7,41.6,90.4,42.3,92.9z M19.2,90.2c2.3,1.4,5.2,1.6,7.9,0.9c0.5,0.4,1.1,0.9,1.6,1.3
	c-3.2,1.3-6.8,1.3-10,0C11.1,89.5,7,81.2,4.9,73.5C3.3,68,2.5,61.4,2.2,54.7c0,0-0.2-6.6-0.2-6.8c0.2-8.2,0.9-17,2.9-24
	C7,16.3,11.1,7.9,18.6,5c3.2-1.3,6.8-1.3,10,0c-0.7,0.2-1.3,0.5-1.8,1.1c-2.5-0.9-5.4-0.5-7.7,0.7c-10.4,5.9-9.5,28.8-10,38.1
	c0,0.9,0.2,9.3,0.2,9.3S9.5,84.8,19.2,90.2z M80.6,47.8c0,0.2-0.2,6.8-0.2,6.8c-0.4,6.6-1.1,13.2-2.7,18.8
	c-2.1,7.7-6.3,16.1-13.8,18.8c-3.2,1.3-6.8,1.3-10,0c0.5-0.5,1.1-0.9,1.6-1.3c2.5,0.9,5.4,0.5,7.7-0.7c9.7-5.4,9.8-36,9.8-36
	s0.2-8.2,0.2-9.3c-0.5-9.3,0.4-32.2-10-38.1c-2.3-1.3-5.2-1.6-7.7-0.9c-0.5-0.4-1.1-0.7-1.8-1.3c3.2-1.3,6.8-1.3,10,0
	c7.5,2.9,11.6,11.1,13.8,18.8C79.7,30.8,80.4,39.4,80.6,47.8z"/>
</svg>
