<?xml version="1.0" encoding="utf-8"?>
<!-- Generator: Adobe Illustrator 22.1.0, SVG Export Plug-In . SVG Version: 6.00 Build 0)  -->
<svg version="1.1" id="Layer_1" xmlns="http://www.w3.org/2000/svg" xmlns:xlink="http://www.w3.org/1999/xlink" x="0px" y="0px"
	 viewBox="0 0 19 21" style="enable-background:new 0 0 19 21;" xml:space="preserve">
<style type="text/css">
	.st0{fill:#808080;}
</style>
<path id="Paperclip" class="st0" d="M18.8,17c0,1-0.4,1.9-1.1,2.6c-0.7,0.7-1.6,1.1-2.6,1.1c-1.2,0-2.3-0.4-3.1-1.3L1.6,8.9
	c-1-1-1.5-2.2-1.5-3.6c0-1.4,0.5-2.6,1.5-3.6s2.2-1.5,3.6-1.5c1.4,0,2.6,0.5,3.7,1.5l8.1,8.1C17,9.9,17,10,17,10.1
	c0,0.1-0.1,0.4-0.4,0.6c-0.3,0.3-0.5,0.4-0.6,0.4c-0.1,0-0.2,0-0.3-0.1L7.6,2.9c-0.7-0.7-1.5-1-2.4-1c-0.9,0-1.7,0.3-2.4,1
	c-0.7,0.7-1,1.5-1,2.4c0,0.9,0.3,1.7,1,2.4l10.4,10.4c0.6,0.6,1.2,0.8,1.9,0.8c0.6,0,1-0.2,1.4-0.6s0.6-0.8,0.6-1.4
	c0-0.7-0.3-1.4-0.8-1.9L8.5,7.3C8.2,7,8,6.9,7.7,6.9C7.4,6.9,7.2,7,7,7.2S6.8,7.6,6.8,7.8c0,0.3,0.1,0.5,0.3,0.8l5.5,5.5
	c0.1,0.1,0.1,0.2,0.1,0.3c0,0.1-0.1,0.4-0.4,0.6s-0.5,0.4-0.6,0.4c-0.1,0-0.2,0-0.3-0.1L5.9,9.8c-0.6-0.5-0.8-1.2-0.8-2
	c0-0.7,0.3-1.4,0.8-1.9C6.3,5.5,7,5.2,7.7,5.2c0.8,0,1.5,0.3,2,0.8l7.8,7.8C18.4,14.7,18.8,15.8,18.8,17z"/>
</svg>
