<?xml version="1.0" encoding="utf-8"?>
<!-- Generator: Adobe Illustrator 22.1.0, SVG Export Plug-In . SVG Version: 6.00 Build 0)  -->
<svg version="1.1" id="Layer_1" xmlns="http://www.w3.org/2000/svg" xmlns:xlink="http://www.w3.org/1999/xlink" x="0px" y="0px"
	 viewBox="0 0 19 19" style="enable-background:new 0 0 19 19;" xml:space="preserve">
<style type="text/css">
	.st0{fill:#9A6A2B;}
</style>
<path id="Search---FontAwesome" class="st0" d="M11.4,11.7c1-1,1.5-2.2,1.5-3.5s-0.5-2.6-1.5-3.5c-1-1-2.2-1.5-3.5-1.5
	S5.3,3.6,4.3,4.6S2.9,6.8,2.9,8.1s0.5,2.6,1.5,3.5s2.2,1.5,3.5,1.5S10.4,12.7,11.4,11.7z M18.6,17.4c0,0.4-0.1,0.7-0.4,1
	c-0.3,0.3-0.6,0.4-1,0.4c-0.4,0-0.7-0.1-1-0.4l-3.8-3.8C11,15.5,9.5,16,7.9,16c-1.1,0-2.1-0.2-3.1-0.6s-1.8-1-2.5-1.7
	C1.6,13,1,12.2,0.6,11.2c-0.4-1-0.6-2-0.6-3.1s0.2-2.1,0.6-3.1c0.4-1,1-1.8,1.7-2.5s1.5-1.3,2.5-1.7s2-0.6,3.1-0.6s2.1,0.2,3.1,0.6
	c1,0.4,1.8,1,2.5,1.7c0.7,0.7,1.3,1.5,1.7,2.5c0.4,1,0.6,2,0.6,3.1c0,1.6-0.5,3.1-1.4,4.5l3.8,3.8C18.4,16.7,18.6,17,18.6,17.4z"/>
</svg>
