<?xml version="1.0" encoding="utf-8"?>
<!-- Generator: Adobe Illustrator 22.1.0, SVG Export Plug-In . SVG Version: 6.00 Build 0)  -->
<svg version="1.1" id="Layer_1" xmlns="http://www.w3.org/2000/svg" xmlns:xlink="http://www.w3.org/1999/xlink" x="0px" y="0px"
	 viewBox="0 0 22 13" style="enable-background:new 0 0 22 13;" xml:space="preserve">
<style type="text/css">
	.st0{fill:#9A6A2B;}
</style>
<path id="VK---FontAwesome" class="st0" d="M21.4,1.7c0.2,0.5-0.4,1.6-1.7,3.3c-0.2,0.2-0.4,0.6-0.7,0.9c-0.3,0.4-0.5,0.6-0.6,0.8
	C18.3,6.9,18.2,7,18,7.2s-0.2,0.4-0.1,0.5c0,0.1,0.1,0.2,0.1,0.4c0.1,0.2,0.2,0.3,0.4,0.5c0.2,0.2,0.4,0.4,0.6,0.6c0,0,0,0,0.1,0
	c1,1,1.8,1.8,2.1,2.5c0,0,0,0.1,0.1,0.1c0,0.1,0.1,0.2,0.1,0.3c0,0.1,0,0.3,0,0.4c0,0.1-0.1,0.2-0.3,0.3c-0.2,0.1-0.4,0.1-0.7,0.1
	l-2.9,0c-0.2,0-0.4,0-0.6-0.1c-0.2-0.1-0.4-0.2-0.6-0.2l-0.2-0.1c-0.2-0.2-0.5-0.4-0.8-0.7c-0.3-0.3-0.6-0.6-0.8-0.9
	c-0.2-0.3-0.4-0.5-0.7-0.6c-0.2-0.2-0.5-0.2-0.6-0.2c0,0-0.1,0-0.1,0c0,0-0.1,0.1-0.2,0.2c-0.1,0.1-0.2,0.2-0.2,0.3
	c-0.1,0.1-0.1,0.3-0.2,0.6c-0.1,0.3-0.1,0.5-0.1,0.9c0,0.1,0,0.2,0,0.3c0,0.1-0.1,0.2-0.1,0.2l0,0.1c-0.1,0.1-0.3,0.2-0.6,0.2h-1.3
	c-0.5,0-1.1,0-1.6-0.2c-0.6-0.2-1-0.3-1.5-0.6s-0.8-0.5-1.1-0.7c-0.3-0.2-0.6-0.5-0.8-0.6l-0.3-0.3c-0.1-0.1-0.2-0.2-0.3-0.3
	s-0.4-0.5-0.8-1S3.3,8.1,2.9,7.5C2.5,6.9,2,6.1,1.5,5.1s-1-2-1.5-3C0,2,0,1.9,0,1.8s0-0.1,0-0.2l0-0.1c0.1-0.1,0.3-0.2,0.6-0.2
	l3.1,0c0.1,0,0.2,0,0.3,0.1s0.1,0.1,0.2,0.1l0.1,0c0.1,0.1,0.2,0.2,0.3,0.4C4.7,2.2,4.8,2.6,5,3s0.3,0.7,0.5,0.9l0.2,0.3
	c0.2,0.4,0.4,0.8,0.6,1.2S6.7,6,6.8,6.2C7,6.4,7.2,6.5,7.3,6.6c0.1,0.1,0.3,0.2,0.4,0.2s0.2,0,0.3-0.1c0,0,0,0,0.1-0.1
	c0,0,0.1-0.1,0.1-0.2c0.1-0.1,0.1-0.3,0.2-0.5S8.4,5.4,8.4,5s0-0.9,0-1.4c0-0.3,0-0.6-0.1-0.8C8.3,2.5,8.2,2.4,8.2,2.3L8.1,2.1
	C7.9,1.9,7.6,1.7,7.2,1.6c-0.1,0-0.1-0.1,0.1-0.3C7.3,1.2,7.5,1.1,7.6,1C8,0.9,8.9,0.8,10.3,0.8c0.6,0,1.1,0.1,1.5,0.1
	C12,1,12.1,1,12.2,1.1c0.1,0.1,0.2,0.2,0.2,0.3c0.1,0.1,0.1,0.2,0.1,0.4s0,0.3,0,0.5c0,0.2,0,0.4,0,0.6s0,0.5,0,0.8s0,0.6,0,0.9
	c0,0.1,0,0.2,0,0.5c0,0.2,0,0.4,0,0.5s0,0.3,0,0.5c0,0.2,0.1,0.3,0.1,0.4c0.1,0.1,0.1,0.2,0.3,0.3c0.1,0,0.1,0,0.2,0
	c0.1,0,0.2,0,0.3-0.1c0.1-0.1,0.3-0.2,0.4-0.4c0.2-0.2,0.3-0.4,0.6-0.7c0.2-0.3,0.5-0.7,0.8-1.2c0.4-0.8,0.8-1.6,1.2-2.5
	c0-0.1,0.1-0.1,0.1-0.2c0-0.1,0.1-0.1,0.1-0.1l0,0l0.1,0c0,0,0.1,0,0.1,0c0.1,0,0.1,0,0.2,0l3.2,0c0.3,0,0.5,0,0.7,0
	c0.2,0.1,0.3,0.1,0.3,0.2L21.4,1.7z"/>
</svg>
