<?xml version="1.0" encoding="utf-8"?>
<!-- Generator: Adobe Illustrator 22.1.0, SVG Export Plug-In . SVG Version: 6.00 Build 0)  -->
<svg version="1.1" id="Layer_1" xmlns="http://www.w3.org/2000/svg" xmlns:xlink="http://www.w3.org/1999/xlink" x="0px" y="0px"
	 viewBox="0 0 20 15" style="enable-background:new 0 0 20 15;" xml:space="preserve">
<style type="text/css">
	.st0{fill:#9A6A2B;}
</style>
<path id="YouTube-Play---FontAwesome" class="st0" d="M7.9,10.4l5.4-2.8L7.9,4.8V10.4z M10,0.8c1.3,0,2.5,0,3.6,0.1s2,0.1,2.6,0.1
	L17,1c0,0,0.1,0,0.2,0c0.1,0,0.2,0,0.3,0c0.1,0,0.1,0,0.3,0.1c0.1,0,0.2,0.1,0.3,0.1c0.1,0,0.2,0.1,0.3,0.1c0.1,0.1,0.2,0.1,0.3,0.2
	c0.1,0.1,0.2,0.2,0.3,0.3c0,0,0.1,0.1,0.2,0.2c0.1,0.1,0.2,0.3,0.3,0.7s0.2,0.7,0.3,1.1c0.1,0.5,0.1,1,0.1,1.5c0,0.5,0.1,1,0.1,1.3
	v2c0,1.1-0.1,2.2-0.2,3.2c-0.1,0.4-0.1,0.8-0.3,1.1c-0.1,0.3-0.3,0.6-0.4,0.7L19,13.8c-0.1,0.1-0.2,0.2-0.3,0.3
	c-0.1,0.1-0.2,0.2-0.3,0.2c-0.1,0.1-0.2,0.1-0.3,0.1c-0.1,0-0.2,0.1-0.3,0.1c-0.1,0-0.2,0-0.3,0.1s-0.1,0-0.3,0s-0.2,0-0.2,0
	c-1.9,0.1-4.2,0.2-7,0.2c-1.5,0-2.9,0-4-0.1s-1.9-0.1-2.2-0.1l-0.5,0l-0.4,0c-0.3,0-0.5-0.1-0.6-0.1s-0.3-0.1-0.6-0.2S1.2,14,1,13.8
	c0,0-0.1-0.1-0.2-0.2S0.6,13.3,0.5,13c-0.1-0.3-0.2-0.7-0.3-1.1c-0.1-0.5-0.1-1-0.1-1.5S0,9.4,0,9.1v-2C0,6,0.1,4.9,0.2,3.9
	c0.1-0.4,0.1-0.8,0.3-1.1s0.3-0.6,0.4-0.7L1,1.9c0.1-0.1,0.2-0.2,0.3-0.3c0.1-0.1,0.2-0.2,0.3-0.2C1.8,1.3,1.9,1.3,2,1.2
	c0.1,0,0.2-0.1,0.3-0.1c0.1,0,0.2,0,0.3-0.1c0.1,0,0.1,0,0.3,0C2.9,1,3,1,3,1C4.9,0.9,7.2,0.8,10,0.8z"/>
</svg>
