<?xml version="1.0" encoding="utf-8"?>
<!-- Generator: Adobe Illustrator 22.1.0, SVG Export Plug-In . SVG Version: 6.00 Build 0)  -->
<svg version="1.1" id="Layer_1" xmlns="http://www.w3.org/2000/svg" xmlns:xlink="http://www.w3.org/1999/xlink" x="0px" y="0px"
	 viewBox="0 0 30 30" style="enable-background:new 0 0 30 30;" xml:space="preserve">
<style type="text/css">
	.st0{fill:#FFFFFF;}
</style>
<path id="zoom_in---material" class="st0" d="M15,11.6h-3.4V15H10v-3.4H6.6V10H10V6.6h1.6V10H15V11.6z M10.9,18.4
	c1.4,0,2.6-0.3,3.8-1s2.1-1.6,2.7-2.7s1-2.4,1-3.8s-0.3-2.6-1-3.8c-0.7-1.1-1.6-2.1-2.7-2.7c-1.1-0.7-2.4-1-3.8-1
	c-1.4,0-2.6,0.3-3.8,1C6,5,5.1,5.9,4.4,7.1c-0.7,1.1-1,2.4-1,3.8s0.3,2.6,1,3.8c0.7,1.1,1.6,2.1,2.7,2.7C8.3,18,9.5,18.4,10.9,18.4z
	 M20.9,18.4l8.3,8.3l-2.5,2.5l-8.3-8.3v-1.3l-0.5-0.4c-0.9,0.8-2,1.5-3.2,1.9c-1.2,0.4-2.5,0.7-3.8,0.7c-2,0-3.8-0.5-5.5-1.4
	c-1.7-1-3-2.3-3.9-3.9c-1-1.7-1.5-3.5-1.5-5.5c0-2,0.5-3.8,1.5-5.5c1-1.7,2.3-3,4-3.9C7.1,0.5,8.9,0,10.9,0s3.8,0.5,5.5,1.5
	c1.6,1,2.9,2.3,3.9,3.9s1.4,3.5,1.4,5.4c0,1.3-0.2,2.6-0.7,3.8s-1.1,2.3-1.9,3.2l0.4,0.5H20.9z"/>
</svg>
